<svg xmlns="http://www.w3.org/2000/svg" xmlns:xlink="http://www.w3.org/1999/xlink" width="500" zoomAndPan="magnify" viewBox="0 0 375 374.999991" height="500" preserveAspectRatio="xMidYMid meet" version="1.0"><defs><g/><clipPath id="b3fb51ebbb"><path d="M 0 9.519531 L 347.25 9.519531 L 347.25 355.269531 L 0 355.269531 Z M 0 9.519531 " clip-rule="nonzero"/></clipPath></defs><g clip-path="url(#b3fb51ebbb)"><path fill="#38b6ff" d="M 201.332031 123.132812 L 156.144531 92.148438 L 241.714844 92.148438 L 208.960938 214.390625 C 200.386719 246.398438 172.566406 272.773438 134.933594 272.773438 L 22.183594 272.773438 L 30.484375 241.789062 L 134.933594 241.789062 C 156.609375 241.789062 173.558594 226.785156 179.03125 206.371094 Z M 169.980469 40.507812 L 178.285156 9.519531 L 347.574219 9.519531 L 290.53125 222.410156 C 266.746094 311.1875 211.484375 355.398438 121.097656 355.398438 L 0.0429688 355.398438 L 8.34375 324.414062 L 121.097656 324.414062 C 181.609375 324.414062 236.632812 303.847656 260.601562 214.390625 L 307.191406 40.507812 Z M 169.980469 40.507812 " fill-opacity="1" fill-rule="evenodd"/></g><g fill="#38b6ff" fill-opacity="1"><g transform="translate(257.769948, 313.046591)"><g><path d="M 11.90625 -11.796875 L 9.8125 0 L 7.875 0 L 8.796875 -5.21875 L 3.25 -5.21875 L 2.328125 0 L 0.390625 0 L 2.484375 -11.796875 L 4.421875 -11.796875 L 3.515625 -6.703125 L 9.0625 -6.703125 L 9.96875 -11.796875 Z M 11.90625 -11.796875 "/></g></g></g><g fill="#38b6ff" fill-opacity="1"><g transform="translate(273.142359, 313.046591)"><g><path d="M 4.140625 -10.3125 L 3.515625 -6.71875 L 7.59375 -6.71875 L 7.34375 -5.234375 L 3.265625 -5.234375 L 2.59375 -1.515625 L 7.1875 -1.515625 L 6.90625 0 L 0.390625 0 L 2.484375 -11.828125 L 9 -11.828125 L 8.734375 -10.3125 Z M 4.140625 -10.3125 "/></g></g></g><g fill="#38b6ff" fill-opacity="1"><g transform="translate(285.440696, 313.046591)"><g><path d="M 10.09375 0 L 8.15625 0 L 3.890625 -8.8125 L 2.328125 0 L 0.390625 0 L 2.484375 -11.828125 L 4.421875 -11.828125 L 8.703125 -3.015625 L 10.234375 -11.828125 L 12.171875 -11.828125 Z M 10.09375 0 "/></g></g></g><g fill="#38b6ff" fill-opacity="1"><g transform="translate(301.084856, 313.046591)"><g><path d="M 10.265625 -8.765625 C 10.148438 -8.085938 9.867188 -7.519531 9.421875 -7.0625 C 8.984375 -6.613281 8.441406 -6.28125 7.796875 -6.0625 C 8.316406 -5.96875 8.742188 -5.703125 9.078125 -5.265625 C 9.421875 -4.828125 9.59375 -4.304688 9.59375 -3.703125 C 9.59375 -3.523438 9.578125 -3.347656 9.546875 -3.171875 C 9.441406 -2.578125 9.191406 -2.035156 8.796875 -1.546875 C 8.398438 -1.066406 7.878906 -0.6875 7.234375 -0.40625 C 6.597656 -0.132812 5.890625 0 5.109375 0 L 0.390625 0 L 2.484375 -11.796875 L 6.984375 -11.796875 C 8.054688 -11.796875 8.878906 -11.5625 9.453125 -11.09375 C 10.023438 -10.632812 10.3125 -10.039062 10.3125 -9.3125 C 10.3125 -9.132812 10.296875 -8.953125 10.265625 -8.765625 Z M 8.25 -8.53125 C 8.269531 -8.6875 8.28125 -8.804688 8.28125 -8.890625 C 8.28125 -9.328125 8.128906 -9.671875 7.828125 -9.921875 C 7.523438 -10.171875 7.09375 -10.296875 6.53125 -10.296875 L 4.140625 -10.296875 L 3.53125 -6.796875 L 5.921875 -6.796875 C 6.554688 -6.796875 7.082031 -6.945312 7.5 -7.25 C 7.914062 -7.5625 8.164062 -7.988281 8.25 -8.53125 Z M 7.640625 -3.375 C 7.660156 -3.5625 7.671875 -3.691406 7.671875 -3.765625 C 7.671875 -4.234375 7.5 -4.601562 7.15625 -4.875 C 6.820312 -5.144531 6.375 -5.28125 5.8125 -5.28125 L 3.265625 -5.28125 L 2.59375 -1.515625 L 5.21875 -1.515625 C 5.875 -1.515625 6.414062 -1.675781 6.84375 -2 C 7.269531 -2.332031 7.535156 -2.789062 7.640625 -3.375 Z M 7.640625 -3.375 "/></g></g></g><g fill="#38b6ff" fill-opacity="1"><g transform="translate(315.183488, 313.046591)"><g><path d="M 4.140625 -10.3125 L 3.515625 -6.71875 L 7.59375 -6.71875 L 7.34375 -5.234375 L 3.265625 -5.234375 L 2.59375 -1.515625 L 7.1875 -1.515625 L 6.90625 0 L 0.390625 0 L 2.484375 -11.828125 L 9 -11.828125 L 8.734375 -10.3125 Z M 4.140625 -10.3125 "/></g></g></g><g fill="#38b6ff" fill-opacity="1"><g transform="translate(327.481825, 313.046591)"><g><path d="M 6.5625 -11.796875 C 7.75 -11.796875 8.644531 -11.53125 9.25 -11 C 9.863281 -10.46875 10.171875 -9.78125 10.171875 -8.9375 C 10.171875 -8.789062 10.148438 -8.566406 10.109375 -8.265625 C 9.972656 -7.515625 9.625 -6.820312 9.0625 -6.1875 C 8.5 -5.550781 7.738281 -5.117188 6.78125 -4.890625 L 8.828125 0 L 6.515625 0 L 4.65625 -4.71875 L 3.15625 -4.71875 L 2.328125 0 L 0.390625 0 L 2.484375 -11.796875 Z M 8.125 -8.265625 C 8.15625 -8.441406 8.171875 -8.609375 8.171875 -8.765625 C 8.171875 -9.253906 8.015625 -9.628906 7.703125 -9.890625 C 7.390625 -10.160156 6.914062 -10.296875 6.28125 -10.296875 L 4.140625 -10.296875 L 3.4375 -6.25 L 5.578125 -6.25 C 6.296875 -6.25 6.875 -6.429688 7.3125 -6.796875 C 7.75 -7.160156 8.019531 -7.648438 8.125 -8.265625 Z M 8.125 -8.265625 "/></g></g></g><g fill="#38b6ff" fill-opacity="1"><g transform="translate(341.614416, 313.046591)"><g><path d="M 10.109375 -11.796875 L 9.828125 -10.296875 L 6.6875 -10.296875 L 4.875 0 L 2.9375 0 L 4.75 -10.296875 L 1.59375 -10.296875 L 1.875 -11.796875 Z M 10.109375 -11.796875 "/></g></g></g></svg>